<svg xmlns="http://www.w3.org/2000/svg" width="169.772" height="33.932" viewBox="0 0 169.772 33.932"><defs><style>.a,.d{fill:none;}.b{fill:#cf0a2c;}.c{fill:#fff;}.d{stroke:#000;stroke-miterlimit:10;}</style></defs><g transform="translate(-126.9 -132.938)"><path class="a" d="M764.32,231.97a2.737,2.737,0,0,0-2.65-1.47,2.974,2.974,0,0,0-2.748,1.421,7.925,7.925,0,0,0-.922,4.138c0,3.246.58,5.294,1.725,6.087a3.2,3.2,0,0,0,1.856.513c2.409,0,3.581-1.959,3.581-5.994A10.326,10.326,0,0,0,764.32,231.97Z" transform="translate(-559.726 -86.296)"/><path class="a" d="M470.793,231.364c0-1.282-.56-1.854-1.817-1.854a3.165,3.165,0,0,0-2.812,1.45,6.887,6.887,0,0,0-1.1,3.29,18.021,18.021,0,0,0,2.471-.253,5.515,5.515,0,0,0,2.287-.983A2.011,2.011,0,0,0,470.793,231.364Z" transform="translate(-299.916 -85.418)"/><path class="b" d="M142.476,163.025l5.106-6.258a2.352,2.352,0,0,1,1.439-1.007l1.186-.107V152.74h-8.414v3.054l2.014.107-7.337,8.918v-7.907a1.036,1.036,0,0,1,1.043-1.151l1.187-.107V152.74H130.07v3.054l2.05.107v16.547a1.185,1.185,0,0,1-.252.88,1.438,1.438,0,0,1-.792.306l-1.186.107v2.912h8.63V173.6l-2.05-.113v-3.343l3.167-3.811,3.56,6.149a1.394,1.394,0,0,1,.18.576c0,.339-.24.527-.719.576l-1.114.107v2.912h9.2V173.6l-1.906-.113Z" transform="translate(-2.652 -17.33)"/><path class="c" d="M146.387,170.455l-6.148-10.107,4.955-6.071a2.068,2.068,0,0,1,1.21-.884l1.182-.113.309-.027V149.69H138.8v3.717l.321.017,1.344.072-6.308,7.669v-6.959a.7.7,0,0,1,.739-.813l1.183-.113.309-.027v-3.562h-9.31v3.717l.322.017,1.728.092v16.226c0,.452-.1.591-.144.632a1.127,1.127,0,0,1-.6.216l-1.18.107-.308.028v3.561h9.309V170.57l-.321-.017-1.729-.09v-2.9l2.775-3.342,3.311,5.718a1.048,1.048,0,0,1,.139.415c0,.063,0,.2-.414.237l-1.113.113-.306.029v3.559h9.883v-3.721l-.32-.018Zm1.708,3.492h-9.2v-2.912l1.114-.107c.48-.049.719-.24.719-.576a1.394,1.394,0,0,0-.18-.576l-3.56-6.149-3.167,3.811v3.344l2.05.113v3.054h-8.628v-2.914l1.186-.107a1.427,1.427,0,0,0,.792-.306,1.187,1.187,0,0,0,.252-.88V153.2l-2.05-.107v-3.054h8.63v2.91l-1.188.107a1.035,1.035,0,0,0-1.043,1.151v7.91l7.342-8.918-2.014-.107v-3.054h8.414v2.91l-1.186.107a2.371,2.371,0,0,0-1.439,1.007l-5.106,6.258,6.365,10.464,1.906.113Z" transform="translate(0 -14.625)"/><path class="b" d="M334.506,204.25H328.07v2.985l1.259.072a.931.931,0,0,1,.7.215,1.267,1.267,0,0,1,.2.828v10a1.034,1.034,0,0,1-1.042,1.15L328,219.6v2.732h8.558v-2.874l-2.049-.113Z" transform="translate(-178.357 -63.015)"/><path class="b" d="M338.782,138.906a2.522,2.522,0,0,0,.755,1.889,2.723,2.723,0,0,0,1.983.737,2.773,2.773,0,0,0,2-.737,2.5,2.5,0,0,0,.774-1.889,2.614,2.614,0,0,0-.774-1.923,2.712,2.712,0,0,0-2-.774,2.609,2.609,0,0,0-2.738,2.7Z" transform="translate(-187.918 -2.67)"/><path class="c" d="M332.176,216.376V201.25h-7.115v3.644l.32.018,1.259.072h.019c.319,0,.422.074.452.105s.107.142.107.6v10a.7.7,0,0,1-.737.813l-1.183.107-.309.028v3.382h9.236v-3.536l-.321-.017Zm1.71,3.306H325.33v-2.74l1.187-.113a1.034,1.034,0,0,0,1.042-1.15v-9.99a1.268,1.268,0,0,0-.2-.828.927.927,0,0,0-.7-.215l-1.259-.072v-2.985h6.436v15.1l2.049.113Z" transform="translate(-175.687 -60.354)"/><path class="c" d="M338.9,139.2a3.1,3.1,0,0,0,2.229-.831,2.835,2.835,0,0,0,.879-2.134,2.957,2.957,0,0,0-.872-2.163,3.046,3.046,0,0,0-2.236-.873,2.956,2.956,0,0,0-3.073,3.037,2.867,2.867,0,0,0,.857,2.132A3.039,3.039,0,0,0,338.9,139.2Zm1.991-4.894a2.614,2.614,0,0,1,.774,1.923,2.492,2.492,0,0,1-.774,1.889,2.793,2.793,0,0,1-1.991.743,2.711,2.711,0,0,1-1.978-.737,2.525,2.525,0,0,1-.755-1.889,2.617,2.617,0,0,1,2.733-2.7A2.679,2.679,0,0,1,340.886,134.308Z" transform="translate(-185.294 0)"/><path class="b" d="M438.175,216.561l-1.366-2.912a7.666,7.666,0,0,1-4.459,1.583,4.289,4.289,0,0,1-3.308-1.169,4.776,4.776,0,0,1-1.186-3.075,18.944,18.944,0,0,0,5.429-.719,8.894,8.894,0,0,0,2.446-1.116,5.521,5.521,0,0,0,1.7-1.888,5.58,5.58,0,0,0,.679-2.787,4.518,4.518,0,0,0-1.583-3.686,6.51,6.51,0,0,0-4.28-1.312,7.96,7.96,0,0,0-6.545,2.877,10.932,10.932,0,0,0-2.338,7.125,10.028,10.028,0,0,0,2.05,6.673q2.05,2.43,6.436,2.428a10.43,10.43,0,0,0,3.9-.684A8.349,8.349,0,0,0,438.175,216.561ZM428.9,204.137a3.507,3.507,0,0,1,3.093-1.6,1.923,1.923,0,0,1,2.157,2.193,2.341,2.341,0,0,1-1.114,1.923,5.819,5.819,0,0,1-2.428,1.042,18.951,18.951,0,0,1-2.894.27,7.315,7.315,0,0,1,1.183-3.827Z" transform="translate(-262.932 -58.784)"/><path class="c" d="M434.492,210.843l-.172-.368-.331.235a7.376,7.376,0,0,1-4.264,1.52,3.971,3.971,0,0,1-3.054-1.06,4.312,4.312,0,0,1-1.068-2.508,19.069,19.069,0,0,0,5.158-.731,9.217,9.217,0,0,0,2.539-1.159,5.908,5.908,0,0,0,2.522-4.955,4.869,4.869,0,0,0-1.7-3.947,6.855,6.855,0,0,0-4.5-1.391,8.313,8.313,0,0,0-6.807,3,11.3,11.3,0,0,0-2.415,7.334,10.384,10.384,0,0,0,2.126,6.889c1.414,1.673,3.679,2.548,6.7,2.548a10.827,10.827,0,0,0,4.027-.708,8.759,8.759,0,0,0,2.529-1.393l.187-.169-.106-.226Zm-11.707,2.643a10.025,10.025,0,0,1-2.05-6.673,10.926,10.926,0,0,1,2.338-7.125,7.96,7.96,0,0,1,6.545-2.877,6.5,6.5,0,0,1,4.279,1.313,4.527,4.527,0,0,1,1.583,3.686,5.577,5.577,0,0,1-.679,2.787,5.521,5.521,0,0,1-1.7,1.888,8.893,8.893,0,0,1-2.445,1.115,18.958,18.958,0,0,1-5.429.719,4.768,4.768,0,0,0,1.186,3.075,4.285,4.285,0,0,0,3.308,1.168,7.67,7.67,0,0,0,4.459-1.583l1.366,2.912a8.441,8.441,0,0,1-2.427,1.33,10.485,10.485,0,0,1-3.9.684Q424.834,215.914,422.785,213.486Z" transform="translate(-260.306 -56.123)"/><path class="c" d="M467.162,230.646a2.349,2.349,0,0,0,1.114-1.923,1.922,1.922,0,0,0-2.157-2.193,3.505,3.505,0,0,0-3.093,1.6,7.356,7.356,0,0,0-1.186,3.829,18.948,18.948,0,0,0,2.894-.27A5.819,5.819,0,0,0,467.162,230.646Zm-4.958.961a6.9,6.9,0,0,1,1.1-3.29,3.16,3.16,0,0,1,2.812-1.45c1.258,0,1.817.571,1.817,1.854a2.011,2.011,0,0,1-.975,1.65,5.515,5.515,0,0,1-2.287.983A18.02,18.02,0,0,1,462.2,231.607Z" transform="translate(-297.06 -82.775)"/><path class="b" d="M585.332,203.32q.357.18.358.9v1.655l3.345-.252v-5.357a7.65,7.65,0,0,0-3.393-.792,5.514,5.514,0,0,0-3.146.917,5.579,5.579,0,0,0-2.014,2.32v-2.7H574.4v2.912l1.51.113a.976.976,0,0,1,.7.269,1.248,1.248,0,0,1,.2.81v9.96a1.191,1.191,0,0,1-.252.881,1.415,1.415,0,0,1-.792.305l-1.184.1V218.1h9.636v-2.839l-3.128-.144V206.77a3.766,3.766,0,0,1,.916-2.608,3.016,3.016,0,0,1,2.356-1.025A2.347,2.347,0,0,1,585.332,203.32Z" transform="translate(-396.89 -58.777)"/><path class="c" d="M582.976,196.474a5.868,5.868,0,0,0-3.335.975,6.192,6.192,0,0,0-1.486,1.383v-1.819H571.4v3.568l.314.023,1.511.107c.313.023.427.1.467.152s.113.183.113.589v9.96c0,.452-.1.593-.144.633a1.132,1.132,0,0,1-.6.216l-1.18.107-.309.028v3.382H581.9v-3.506l-.323-.015-2.8-.129v-8.02a3.409,3.409,0,0,1,.83-2.382,2.646,2.646,0,0,1,2.1-.912,2.036,2.036,0,0,1,.823.146c.106.059.167.275.167.594v2.02l.365-.027,3.341-.248.314-.024V197.4l-.191-.093A8.03,8.03,0,0,0,582.976,196.474Zm-3.633,5.035a3.766,3.766,0,0,0-.916,2.608v8.342l3.128.144v2.841H571.92v-2.738l1.188-.113a1.422,1.422,0,0,0,.792-.305,1.2,1.2,0,0,0,.252-.881v-9.953a1.277,1.277,0,0,0-.2-.81.971.971,0,0,0-.7-.269l-1.51-.113v-2.908h6.077v2.7a5.579,5.579,0,0,1,2.014-2.32,5.514,5.514,0,0,1,3.146-.917,7.65,7.65,0,0,1,3.393.792v5.357l-3.345.252V201.56q0-.719-.359-.9a2.347,2.347,0,0,0-.971-.18A3.012,3.012,0,0,0,579.344,201.509Z" transform="translate(-394.229 -56.117)"/><path class="b" d="M733.1,208.586a12.812,12.812,0,0,0-.593-4.117,6.308,6.308,0,0,0-3.775-4.278,8.568,8.568,0,0,0-3.651-.7,9.108,9.108,0,0,0-5.646,1.942,7.072,7.072,0,0,0-2.122,3,12.3,12.3,0,0,0-.792,4.621q0,4.75,2.122,7.174a7.415,7.415,0,0,0,5.881,2.427,8.111,8.111,0,0,0,6.168-2.553Q733.1,213.551,733.1,208.586Zm-8.306,6.908a3.5,3.5,0,0,1-2.049-.575q-1.871-1.3-1.871-6.368a8.217,8.217,0,0,1,.972-4.316,3.311,3.311,0,0,1,3.038-1.583,3.078,3.078,0,0,1,2.95,1.653,10.576,10.576,0,0,1,.881,4.855Q728.712,215.494,724.792,215.494Z" transform="translate(-522.937 -58.793)"/><path class="c" d="M730.174,201.69a6.64,6.64,0,0,0-3.953-4.477,8.923,8.923,0,0,0-3.794-.733,9.492,9.492,0,0,0-5.85,2.011,7.432,7.432,0,0,0-2.231,3.146,12.643,12.643,0,0,0-.815,4.75c0,3.233.742,5.723,2.205,7.4a7.78,7.78,0,0,0,6.134,2.546,8.461,8.461,0,0,0,6.415-2.659c1.665-1.764,2.5-4.367,2.5-7.749A13.207,13.207,0,0,0,730.174,201.69Zm-8.3,14.3a7.4,7.4,0,0,1-5.881-2.427q-2.124-2.427-2.122-7.174a12.3,12.3,0,0,1,.792-4.621,7.063,7.063,0,0,1,2.122-3,9.1,9.1,0,0,1,5.646-1.942,8.55,8.55,0,0,1,3.651.7,6.286,6.286,0,0,1,3.776,4.275,12.794,12.794,0,0,1,.593,4.117q0,4.963-2.408,7.516A8.113,8.113,0,0,1,721.87,215.991Z" transform="translate(-520.285 -56.123)"/><path class="c" d="M759.009,227.46a3.3,3.3,0,0,0-3.038,1.583,8.247,8.247,0,0,0-.971,4.315q0,5.07,1.87,6.365a3.5,3.5,0,0,0,2.049.575q3.919,0,3.92-6.333a10.6,10.6,0,0,0-.881-4.855A3.063,3.063,0,0,0,759.009,227.46Zm-.089,12.5a3.2,3.2,0,0,1-1.856-.513c-1.144-.792-1.725-2.841-1.725-6.087a7.924,7.924,0,0,1,.922-4.138,2.964,2.964,0,0,1,2.748-1.42,2.735,2.735,0,0,1,2.65,1.47,10.325,10.325,0,0,1,.841,4.695C762.5,238,761.333,239.961,758.92,239.961Z" transform="translate(-557.065 -83.599)"/><path d="M872.42,176.778v-2.9l1.18-.107q1.037-.106,1.037-1V156.149l-2.036-.107V153h10.226a9.422,9.422,0,0,1,6.239,1.877,6.936,6.936,0,0,1,2.235,5.632,7.155,7.155,0,0,1-2.539,5.846,10.231,10.231,0,0,1-6.722,2.091H879v5.185l3.432.107v3.039Zm6.579-11.8h2.574q5.222,0,5.221-4.256,0-2.573-1.34-3.414a8.293,8.293,0,0,0-4.273-.84H879Z" transform="translate(-661.205 -17.561)"/><path d="M1077.258,200.775v13.3a1.173,1.173,0,0,0,.2.786,1.029,1.029,0,0,0,.7.25l1.144.072v2.86h-5.683v-2.074l-.113-.035a5.657,5.657,0,0,1-4.9,2.574,6.325,6.325,0,0,1-5.4-2.324,10.351,10.351,0,0,1-1.752-6.365q0-4.863,2.36-7.577t7.08-2.714A17.988,17.988,0,0,1,1077.258,200.775Zm-4.148,11.588V203.1a6.71,6.71,0,0,0-2.753-.465,3.668,3.668,0,0,0-3.469,1.932,10.545,10.545,0,0,0-1.073,5.113q0,5.792,3.718,5.793a3.594,3.594,0,0,0,2.575-.948A2.9,2.9,0,0,0,1073.11,212.363Z" transform="translate(-828.857 -58.828)"/><path d="M1252.74,223.792q-1.968,1.859-6.15,1.859a14.877,14.877,0,0,1-6.544-1.18V219.5l3.393-.286v1.717a1.283,1.283,0,0,0,.895,1.305,7.178,7.178,0,0,0,2.467.339,3.6,3.6,0,0,0,3.219-1.376,6.89,6.89,0,0,0,.93-3.88v-1.961a5.918,5.918,0,0,1-4.75,2,7.153,7.153,0,0,1-3.272-.715,5.517,5.517,0,0,1-2.2-1.932,10.472,10.472,0,0,1-1.538-5.72q0-4.683,2.539-7.1a9.4,9.4,0,0,1,6.757-2.413,16.738,16.738,0,0,1,6.615,1.322v13.266q0,3.04-.071,3.9Q1254.7,221.93,1252.74,223.792Zm-1.788-13.087v-7.69a8.8,8.8,0,0,0-2.86-.43,3.874,3.874,0,0,0-3.344,1.609,7.3,7.3,0,0,0-1.161,4.362q0,5.655,3.719,5.655a3.738,3.738,0,0,0,2.592-.948,3.264,3.264,0,0,0,1.054-2.558Z" transform="translate(-986.495 -58.782)"/><path d="M1407.36,208.991a12.169,12.169,0,0,1,.792-4.6,7.087,7.087,0,0,1,2.109-2.986,9.057,9.057,0,0,1,5.614-1.931,8.489,8.489,0,0,1,3.629.7,6.271,6.271,0,0,1,3.755,4.256,12.715,12.715,0,0,1,.589,4.094q0,4.933-2.4,7.473a8.058,8.058,0,0,1-6.136,2.539,7.368,7.368,0,0,1-5.847-2.413Q1407.354,213.712,1407.36,208.991Zm8.224,6.4q3.9,0,3.9-6.293a10.534,10.534,0,0,0-.876-4.828,3.056,3.056,0,0,0-2.931-1.644,3.29,3.29,0,0,0-3.022,1.573,8.164,8.164,0,0,0-.965,4.291q0,5.042,1.859,6.333A3.488,3.488,0,0,0,1415.584,215.391Z" transform="translate(-1135.646 -58.784)"/><circle class="d" cx="3.54" cy="3.54" r="3.54" transform="translate(289.092 133.438)"/><path d="M1576.3,151.412v-.528l.215-.019c.125-.012.189-.074.189-.182v-3.029l-.372-.02v-.553h1.779a2.028,2.028,0,0,1,1.159.279,1.037,1.037,0,0,1,.4.918,1.13,1.13,0,0,1-.226.731,1.37,1.37,0,0,1-.551.416.679.679,0,0,1,.371.4l.469,1.018.371.012v.554H1578.5v-.528l.189-.019c.1-.012.149-.052.149-.113a.214.214,0,0,0-.026-.09l-.307-.651a.59.59,0,0,0-.16-.232.4.4,0,0,0-.251-.068h-.593v1.131l.424.019v.554Zm1.2-2.325h.565q.8,0,.8-.717c0-.274-.071-.452-.212-.534a1.415,1.415,0,0,0-.678-.124h-.476Z" transform="translate(-1285.48 -12.31)"/></g></svg>